<svg id="Layer_1" data-name="Layer 1" xmlns="http://www.w3.org/2000/svg" viewBox="0 0 839.91 349.81"><path d="M788.71,1004.77c4,3.49,1.84,10.4-3.26,10.62-94.81,4-155.41,10.12-155.41,17,0,8.36,90,15.62,222.37,19.3a.87.87,0,0,1,.09,1.72c-16.4,2.47-25.59,5.23-25.59,8.14,0,4.19,18.92,8.06,51,11.19a1.28,1.28,0,0,1,0,2.53c-39.8,2.81-64.48,6.72-64.48,11,0,6.44,54.7,12,132.56,14.3a1.23,1.23,0,0,1,.23,2.39c-3.4.89-5.22,1.83-5.22,2.8,0,4.48,38.86,8.3,93.7,9.84,1.5,0,2.43,1.49,2.37,3.11v0c0,.93,1.63,1.83,4.6,2.66-15.09,1-25.09,2.82-25.09,4.86,0,3.19,24.4,5.78,54.49,5.78s54.48-2.59,54.48-5.78a.64.64,0,0,0,0-.23c30.79-.82,53.58-3.78,53.58-7.29v0a4.68,4.68,0,0,1,4.16-4.89c31.81-1.93,52-4.82,52-8,0-3-17-5.65-44.39-7.56a.83.83,0,0,1,0-1.64c33.86-2.74,54.43-6.34,54.43-10.29,0-1.9-4.78-3.73-13.53-5.41a1.7,1.7,0,0,1,.21-3.34c73.81-3.36,122.82-9.28,122.82-16,0-3.86-16.17-7.46-43.91-10.46a.79.79,0,0,1,0-1.56c97-4,159.15-10.19,159.15-17.14s-60-12.9-153.87-16.91c-5.49-.23-7.51-7.89-2.95-11.2,4.14-3,8.29-6.24,12.54-9.67,32.62-26.39,62.83-77.76,21.81-131.41-72.58,35.43-146.74,58.42-221.61,69l-1-16.84a3.62,3.62,0,0,0-.21-3.41l-3.8-62.63a5.33,5.33,0,0,1,.31-1.85,3.68,3.68,0,0,0,.23-1.56l-.65-10.71c.28-.18.56-.37.81-.5a8.1,8.1,0,0,0,3.21-3,16.72,16.72,0,0,1,3.21,1.8,2.38,2.38,0,0,0,1.54.44,2.5,2.5,0,0,0,2.11-1.55,3,3,0,0,0-1.06-3.55,21.6,21.6,0,0,0-5.6-2.8c-1-1.64-3-2.78-6.13-2.64a13.42,13.42,0,0,0-6,2.29,21.78,21.78,0,0,0-9.18,5.12,3,3,0,0,0-.78,3.09A134.13,134.13,0,0,0,1092,846c-3.72,4.8-15.4,5.32-26,4.94s-9.1-3.39-12.32-6.19,1.54-10.13,9.52-5.9c4.76,2.52,9.63-13.48,9.63-13.48a24.68,24.68,0,0,0,6.25-15.75c2.37-.43,4.49-.7,5.9-.85a1.64,1.64,0,0,0,1.3-2.14c-1.5-5-3.37-16.25-15.49-21-11.31-4.45-23.42-4.89-32.3.8-5.3,3.4-6.28,5.22-6.22,6.14a9.24,9.24,0,0,1-.37,3.39,39.43,39.43,0,0,0-.84,18.64,10.26,10.26,0,0,0,3.2,5.78c-2.1,5.53-7.36,12.52-21.5,25.34-22.53,20.44-25.55,51.67-23.4,76.52.7,8.09-5.48,15-13,14.36-69.06-5.49-138.26-21.44-206.93-47.9C769.46,888.73,735.66,958.09,788.71,1004.77Zm336.92-176.51a13.29,13.29,0,0,1,1.55.79,12.44,12.44,0,0,1,2.79,2.23c-1-.52-2.08-1-3.13-1.46l-1.25-.49A5.51,5.51,0,0,0,1125.63,828.26Zm-89.42-21.37a1.63,1.63,0,0,1,.12-1.12s0,0,0-.06C1036.31,806.11,1036.26,806.51,1036.21,806.89Zm117.54,133.66,16.07-3.59,16-3.86c5.31-1.41,10.62-2.76,15.92-4.22l15.83-4.57c21.08-6.16,41.86-13.43,62.42-21.31l15.36-6.09,15.24-6.42,15.12-6.75,15-7,1.09-.5a3.77,3.77,0,0,1,4.86,1.59l.64,1.06a79.39,79.39,0,0,1,10.1,25.63,69.31,69.31,0,0,1,1.21,14.18,71.32,71.32,0,0,1-1.8,14.09A88.2,88.2,0,0,1,1352.5,946a100.85,100.85,0,0,1-6.27,12,111.69,111.69,0,0,1-16.46,20.62,122.44,122.44,0,0,1-9.66,8.62c-3.25,2.59-6.52,5.18-9.91,7.66a139.33,139.33,0,0,1-21.43,13.44,92.88,92.88,0,0,1-11.75,4.92c-.62.21-1.24.4-1.86.6-17.2-.57-35.26-1.08-54-1.51,6.14-.88,12.28-1.76,18.41-2.68l11.85-1.74,5.93-.88c1.88-.34,3.77-.59,5.62-1a79,79,0,0,0,10.94-3.16,82.74,82.74,0,0,0,10.49-4.65,115.51,115.51,0,0,0,10.06-5.92c3.31-2.12,6.54-4.44,9.75-6.84s6.37-4.92,9.53-7.46a113.09,113.09,0,0,0,8.74-7.92c1.14-1.13,2.23-2.31,3.31-3.5-2.15.95-4.3,1.88-6.5,2.62l-5.26,1.94c-1.76.61-3.54,1.1-5.31,1.65l-5.32,1.62c-1.77.49-3.57.89-5.36,1.34-3.58.85-7.13,1.84-10.74,2.43l-10.79,2-10.83,1.49c-1.81.22-3.6.54-5.41.69l-5.43.48-10.85,1-10.87.48c-3.62.12-7.23.39-10.85.38-7.24,0-14.47.09-21.69-.07l-21.65-.87,21.64-.62c7.2-.33,14.39-.95,21.57-1.41,3.59-.23,7.16-.75,10.74-1.12l10.72-1.21,10.66-1.69,5.32-.84c1.77-.27,3.52-.7,5.29-1l10.53-2.18,10.42-2.7c3.48-.82,6.86-2,10.28-3.07,1.7-.56,3.41-1.06,5.1-1.65l5-1.9c1.67-.65,3.35-1.24,5-1.93l4.87-2.18c3.29-1.36,6.36-3.14,9.52-4.73,3-1.79,6.09-3.55,8.9-5.59,1.47-.94,2.73-2.08,4.1-3.11l1.86-1.64.33-.31c.62-1.26,1.22-2.53,1.78-3.82a75.35,75.35,0,0,0,3.75-11.12,59.46,59.46,0,0,0,1.54-11.47q0-1.73,0-3.45a1.84,1.84,0,0,0-2.7-1.67h0c-2.26,1.31-4.59,2.45-6.88,3.68s-4.62,2.35-7,3.47-4.64,2.27-7,3.32l-7.07,3.09-3.54,1.54-3.57,1.42-7.15,2.81a466.28,466.28,0,0,1-58.42,17.68l-14.84,3.22c-2.46.58-5,1-7.44,1.43l-7.47,1.29-7.46,1.29-3.73.64-3.76.48-15,1.93c-5,.74-10,1.1-15,1.53l-15,1.28c-10,.58-20.09.87-30.12,1.32,10-.94,20-1.73,30-2.8l14.93-2c5-.67,10-1.28,14.89-2.25l14.82-2.66,3.7-.67,3.68-.81,7.35-1.65,7.35-1.64c2.45-.54,4.9-1.09,7.32-1.78l14.55-3.91A463.31,463.31,0,0,0,1300,924.31l6.88-3.09,3.44-1.56,3.38-1.68,6.76-3.35c2.25-1.13,4.43-2.38,6.65-3.56s4.43-2.38,6.58-3.68,4.36-2.5,6.46-3.86l3.82-2.44a2.05,2.05,0,0,0,.78-2.38c-.66-2-1.43-3.9-2.28-5.81a3.91,3.91,0,0,0-5.18-2.09l-7.51,3.4-15.43,6.51-15.54,6.17-15.64,5.84c-20.93,7.59-42.22,14-63.66,19.55-5.36,1.37-10.76,2.58-16.14,3.87s-10.81,2.33-16.21,3.49-10.85,2.08-16.28,3.11l-16.33,2.63a592.43,592.43,0,0,1-65.7,6.21Q1121.5,947.3,1153.75,940.55ZM1055,868.32c4.1-6.53,33-1.8,39.91-6.82,6.46-4.7,13.73-14.14,19.66-20.62l.33,5.42a3.76,3.76,0,0,0,.5,1.66,3.61,3.61,0,0,1,.46,1.64l3.56,58.56a28.19,28.19,0,0,0-10.33-1.8c-10.64.32-20.89-5.36-38-19C1053.62,873.53,1052.43,872.36,1055,868.32Zm-.93,27c7.81-.23,11.62,7.37,21.47,10.21,8.73,2.5,16.47,5.86,21.71,7.26,5.7,1.52,16.38,5.83,22.78,5.36l.89,14.67q-4.41.59-8.82,1.11c-13.16-7.14-59-3.63-66.12-15.51C1040.37,909.07,1046.21,895.54,1054,895.31Zm22-98.16a1.3,1.3,0,0,1-.15.18,17.22,17.22,0,0,0-4.88-4.7,4,4,0,0,1,3.1.72C1075.7,794.42,1076.57,796.12,1076,797.15Zm-42-4.55a11,11,0,0,1-.55,4,11.14,11.14,0,0,0,.37-2,12.14,12.14,0,0,0,0-2v-.05a3.53,3.53,0,0,1,.44-.67,6.91,6.91,0,0,1,.51-.57,13.52,13.52,0,0,1,1.12-1,29.82,29.82,0,0,1,2.4-1.83,27.9,27.9,0,0,1,2.54-1.61,22.88,22.88,0,0,1,2.7-1.27,26,26,0,0,1,5.72-1.54,33.25,33.25,0,0,1,5.89-.38,43.73,43.73,0,0,1,11.62,2l1.42.46c.46.17.93.32,1.39.5a27.73,27.73,0,0,1,2.77,1.18,20.64,20.64,0,0,1,5,3.51,22,22,0,0,1,3.82,4.94,30.5,30.5,0,0,1,2.48,5.82c.32,1,.6,2,.87,3l.11.39a1.94,1.94,0,0,1-.28,1.53,1.66,1.66,0,0,1-.79.62l-.24.06-.12,0-.09,0-.36,0c-1.24.16-2.48.35-3.72.55,0-.3,0-.6,0-.91h.24l.52-.1c1-.17,1.94-.32,2.91-.46l.36,0h.16a.45.45,0,0,0,.11,0,.82.82,0,0,0,.51-.76,1,1,0,0,0,0-.25l-.1-.37c-.28-1-.57-2-.89-3a30,30,0,0,0-2.43-5.59,19.88,19.88,0,0,0-8.41-8,25.2,25.2,0,0,0-2.67-1.14c-.45-.18-.91-.34-1.37-.5l-1.38-.46a44,44,0,0,0-11.38-2.07,29.7,29.7,0,0,0-11.4,1.61,25.39,25.39,0,0,0-5.22,2.65c-.84.54-1.66,1.1-2.44,1.71-.39.31-.77.63-1.13,1a6.63,6.63,0,0,0-.52.54A3,3,0,0,0,1034,792.6ZM772.74,905.51a4.62,4.62,0,0,1,6-3.16l.43.17q10.56,4.11,21.17,8.09c7.06,2.68,14.16,5.28,21.26,7.91s14.24,5.15,21.36,7.78q5.37,1.89,10.72,3.88c3.59,1.27,7.16,2.6,10.74,4-3.77-.41-7.54-.89-11.28-1.47l-5.62-.88-5.6-1c-7.47-1.33-14.88-3-22.28-4.74s-14.73-3.75-22-5.88q-4.5-1.32-9-2.75c-4.19-1.33-8.45,1.67-9.13,6.34-.13.88-.24,1.76-.35,2.64v0c2.77,1.13,5.55,2.28,8.38,3.31,5,1.9,10.13,3.59,15.26,5.21,10.29,3.21,20.75,5.89,31.29,8.24,5.28,1.09,10.56,2.24,15.89,3.13s10.66,1.79,16,2.59c2.67.43,5.35.76,8,1.07l8.06,1c5.38.57,10.77,1,16.17,1.52-5.41,0-10.83,0-16.25,0l-8.13-.24c-2.72-.06-5.43-.15-8.14-.33-5.42-.3-10.85-.6-16.26-1.12s-10.84-1.08-16.26-1.69c-10.82-1.39-21.62-3.13-32.37-5.44-5.37-1.17-10.73-2.42-16.07-3.91l-.07,0c-3.24-.86-6.28,2-6,5.61,0,.53.1,1.06.15,1.59a69.32,69.32,0,0,0,4.34,17.72l.21.52a6.31,6.31,0,0,0,2.83,3.18c1.57.85,3.09,1.65,4.64,2.44,3.09,1.56,6.23,3,9.45,4.28a179.17,179.17,0,0,0,19.81,6.64,307.25,307.25,0,0,0,41.35,8c14,1.84,28.07,3,42.19,3.62s28.29.87,42.45.75c-14.13,1.11-28.29,1.9-42.48,2.22s-28.41.2-42.65-.67a309.15,309.15,0,0,1-42.64-5.24,185.48,185.48,0,0,1-21.13-5.5c-.58-.18-1.15-.4-1.73-.6A88.27,88.27,0,0,0,805,993.4a114,114,0,0,0,15.07,10.71c2.62,1.68,5.41,3,8.12,4.6,2.77,1.4,5.53,2.9,8.39,4.15.45.22.91.42,1.36.63l-11.48.37-.18-.06c-1.5-.52-3-1.1-4.49-1.69s-3-1.21-4.44-1.88c-3-1.26-5.85-2.77-8.75-4.27s-5.68-3.3-8.39-5.24A82.17,82.17,0,0,1,785,987.21a70.82,70.82,0,0,1-11.36-17.9,75.63,75.63,0,0,1-5.57-21,90.59,90.59,0,0,1,0-21.52,113,113,0,0,1,4.44-20.69Z" transform="translate(-630.04 -782.26)"/></svg>